<svg xmlns="http://www.w3.org/2000/svg" viewBox="0 0 1273.34 99.88"><g id="Layer_2" data-name="Layer 2"><g id="Calque_1" data-name="Calque 1"><path d="M197.27,38.29A30.39,30.39,0,0,1,191,57.55a33.42,33.42,0,0,1-5.25,5.25A28.37,28.37,0,0,1,179,66.74l8.25,13.43q4.31,7,8.24,13.57H177.68L163.49,70H136.56V93.74H121V6.18h43.19a34.58,34.58,0,0,1,12.92,2.41,32.58,32.58,0,0,1,10.72,6.93,33.4,33.4,0,0,1,6.93,10.07A30.56,30.56,0,0,1,197.27,38.29ZM136.56,55.94h27.91a18.12,18.12,0,0,0,7.12-1.39A13.73,13.73,0,0,0,177,50.67,16.52,16.52,0,0,0,180.48,45a19.16,19.16,0,0,0,1.17-6.59,16.68,16.68,0,0,0-4.4-11.87,15.21,15.21,0,0,0-5.8-4.4,18.77,18.77,0,0,0-7.72-1.61H136.56Z"/><path d="M290.08,6.18l38.81,87.56H312.11l-7.29-16h-46.7l-7.15,16H234.48L273.3,6.18Zm-26,57.5H299L282.2,22.09h-1.75Z"/><path d="M405.51,6.18a45.93,45.93,0,0,1,18.38,3.58,44.41,44.41,0,0,1,14.45,9.85,41.17,41.17,0,0,1,8.54,13.49,46.09,46.09,0,0,1,3,16.86,45.62,45.62,0,0,1-3.43,17.8,42.57,42.57,0,0,1-9.56,14.16A42.06,42.06,0,0,1,423,90.6a47.73,47.73,0,0,1-17.51,3.14H369V6.18Zm-21.16,14V79.73h20.51a32.19,32.19,0,0,0,12.22-2.19,27.44,27.44,0,0,0,9.17-6q8-8.34,8-21.65T426.4,28.53a28.18,28.18,0,0,0-9.17-6.07,31.66,31.66,0,0,0-12.37-2.27Z"/><path d="M515.68,93.74,480.37,6.18H497.3l28.45,72.38h1.17L555.23,6.18h16.34L536.26,93.74Z"/><path d="M611.85,6.18H679.7v14.3H627.46V40.91h46.7v14h-46.7V79.73h54.29v14h-69.9Z"/><path d="M805.49,6.18V93.74H791.05l-51.52-62.9v62.9H724.21V6.18h14.45l51.8,63v-63Z"/><path d="M845.48,6.18h80.4v14H893.34V93.74H878V20.19H845.48Z"/><path d="M1042.63,57A38.49,38.49,0,0,1,1031,85a37.62,37.62,0,0,1-11.74,7.52,39,39,0,0,1-14.82,2.7,39.64,39.64,0,0,1-15.61-2.92A37,37,0,0,1,977,84.4a37.53,37.53,0,0,1-8.17-12.26A39,39,0,0,1,965.87,57V6.18h15.61V57.94a22.86,22.86,0,0,0,6.61,16.38,22.67,22.67,0,0,0,25.34,5,24.87,24.87,0,0,0,7.27-5,20.94,20.94,0,0,0,4.62-7.09,24.47,24.47,0,0,0,1.69-9.29V6.18h15.62Z"/><path d="M1162.58,38.29a30.39,30.39,0,0,1-6.26,19.26,33.42,33.42,0,0,1-5.25,5.25,28.37,28.37,0,0,1-6.72,3.94l8.25,13.43q4.31,7,8.24,13.57H1143L1128.8,70h-26.93V93.74h-15.61V6.18h43.19a34.55,34.55,0,0,1,12.92,2.41,32.58,32.58,0,0,1,10.72,6.93A33.61,33.61,0,0,1,1160,25.59,30.71,30.71,0,0,1,1162.58,38.29Zm-60.71,17.65h27.91a18.12,18.12,0,0,0,7.12-1.39,13.77,13.77,0,0,0,5.37-3.88,16.5,16.5,0,0,0,3.52-5.72,19.17,19.17,0,0,0,1.18-6.59,16.64,16.64,0,0,0-4.41-11.87,15.14,15.14,0,0,0-5.8-4.4,18.72,18.72,0,0,0-7.71-1.61h-27.18Z"/><path d="M1203.44,6.18h67.86v14.3h-52.25V40.91h46.7v14h-46.7V79.73h54.29v14h-69.9Z"/><path d="M43.17,43V55.84l22,1.15V74.71a37.57,37.57,0,0,1-8.91,4.14,35.3,35.3,0,0,1-10.9,1.58,30.41,30.41,0,0,1-11.55-2.15,29.21,29.21,0,0,1-9.4-6.15,28.55,28.55,0,0,1-6.49-9.64,32.77,32.77,0,0,1-2.35-12.65A31.63,31.63,0,0,1,17.8,37.9a27.54,27.54,0,0,1,6.07-9.36,31,31,0,0,1,9.86-6.65,30.56,30.56,0,0,1,12-2.36A34,34,0,0,1,59,21.89a35.88,35.88,0,0,1,11.15,7.94L80.33,19.68A47.57,47.57,0,0,0,64.61,8.82a39.06,39.06,0,0,0-4.69-1.56A54.11,54.11,0,0,0,45.74,5.52,48.09,48.09,0,0,0,27.59,8.88a44.22,44.22,0,0,0-14.44,9.37A41.65,41.65,0,0,0,3.43,32.4,44.62,44.62,0,0,0,0,49.84a47.05,47.05,0,0,0,2.78,16.3A47.55,47.55,0,0,0,5,71.27,40.72,40.72,0,0,0,25.18,90.43a47.51,47.51,0,0,0,17.59,3.95h.35c.66,0,1.33,0,2,0h.5l.91,0A46.13,46.13,0,0,0,80.48,78.13V43Z"/><rect x="36.72" width="14.71" height="8.47"/><rect x="36.72" y="91.41" width="14.71" height="8.47"/></g></g></svg>