<svg xmlns="http://www.w3.org/2000/svg" viewBox="0 0 742.77 739.75"><defs><style>.cls-1{fill:#3cac96;}.cls-2{fill:#034544;}.cls-3{fill:#015c5f;}</style></defs><g id="Layer_2" data-name="Layer 2"><g id="Calque_1" data-name="Calque 1"><path class="cls-1" d="M642.91,468.1A271.65,271.65,0,1,1,119.07,367l249,174.63a11.17,11.17,0,0,0,12.91-.05L624,368.27A269.86,269.86,0,0,1,642.91,468.1Z"/><path class="cls-2" d="M624,368.27,381,541.53a11.17,11.17,0,0,1-12.91.05L119.07,367q.92-2.29,1.88-4.58a271.82,271.82,0,0,1,500.62,0Q622.81,365.31,624,368.27Z"/><path class="cls-3" d="M742.77,277.92a11,11,0,0,1-4.69,9L624,368.27q-1.17-3-2.41-5.9a271.81,271.81,0,0,0-500.62,0q-1,2.28-1.88,4.58L4.76,286.78a11.17,11.17,0,0,1-.23-18.13L364.61,2.19a11.19,11.19,0,0,1,13.3,0L558.07,135.51,738.24,268.84A11.06,11.06,0,0,1,742.77,277.92Z"/></g></g></svg>